<svg width="41" height="41" viewBox="0 0 41 41" fill="none" xmlns="http://www.w3.org/2000/svg">
<path fill-rule="evenodd" clip-rule="evenodd" d="M20.3 0C9.08425 0 0 9.31402 0 20.8135C0 30.0234 5.81087 37.8025 13.8801 40.5602C14.8951 40.7424 15.2757 40.118 15.2757 39.5716C15.2757 39.0773 15.2504 37.4382 15.2504 35.6951C10.15 36.6577 8.8305 34.4203 8.4245 33.2495C8.19612 32.6511 7.2065 30.8039 6.34375 30.3096C5.63325 29.9194 4.61825 28.9567 6.31837 28.9307C7.917 28.9047 9.05887 30.4397 9.4395 31.0641C11.2665 34.2121 14.1846 33.3276 15.3519 32.7812C15.5295 31.4283 16.0624 30.5177 16.646 29.9974C12.1292 29.4771 7.4095 27.6819 7.4095 19.7208C7.4095 17.4573 8.19612 15.5841 9.49025 14.1271C9.28725 13.6068 8.57675 11.4734 9.69325 8.61157C9.69325 8.61157 11.3934 8.06522 15.2757 10.745C16.8997 10.2766 18.6252 10.0425 20.3507 10.0425C22.0762 10.0425 23.8017 10.2766 25.4257 10.745C29.3081 8.0392 31.0082 8.61157 31.0082 8.61157C32.1247 11.4734 31.4143 13.6068 31.2113 14.1271C32.5054 15.5841 33.292 17.4313 33.292 19.7208C33.292 27.7079 28.5469 29.4771 24.0301 29.9974C24.766 30.6478 25.4004 31.8966 25.4004 33.8479C25.4004 36.6317 25.375 38.8691 25.375 39.5716C25.375 40.118 25.7556 40.7684 26.7706 40.5602C30.8005 39.1653 34.3022 36.5097 36.783 32.9674C39.2638 29.4251 40.5988 25.1744 40.6 20.8135C40.6 9.31402 31.5157 0 20.3 0Z" fill="#333333"/>
</svg>
