<svg width="30" height="30" viewBox="0 0 30 30" fill="none" xmlns="http://www.w3.org/2000/svg">
<rect width="30" height="30" rx="15" fill="white"/>
<path d="M25.7141 12.4599H24.875V12.4167H15.5V16.5833H21.387C20.5282 19.0089 18.2204 20.75 15.5 20.75C12.0485 20.75 9.25004 17.9516 9.25004 14.5C9.25004 11.0484 12.0485 8.25 15.5 8.25C17.0933 8.25 18.5428 8.85104 19.6464 9.83281L22.5928 6.88645C20.7323 5.1526 18.2438 4.08333 15.5 4.08333C9.74744 4.08333 5.08337 8.74739 5.08337 14.5C5.08337 20.2526 9.74744 24.9167 15.5 24.9167C21.2526 24.9167 25.9167 20.2526 25.9167 14.5C25.9167 13.8016 25.8448 13.1198 25.7141 12.4599Z" fill="#FBC02D"/>
<path d="M6.28442 9.65156L9.70682 12.1615C10.6329 9.86874 12.8756 8.24999 15.5 8.24999C17.0933 8.24999 18.5428 8.85104 19.6464 9.83281L22.5928 6.88645C20.7323 5.1526 18.2438 4.08333 15.5 4.08333C11.499 4.08333 8.02922 6.34218 6.28442 9.65156Z" fill="#E53935"/>
<path d="M15.5 24.9167C18.1906 24.9167 20.6354 23.887 22.4839 22.2125L19.2599 19.4844C18.2141 20.2766 16.9141 20.75 15.5 20.75C12.7906 20.75 10.4901 19.0224 9.62344 16.6115L6.22656 19.2287C7.95052 22.6021 11.4516 24.9167 15.5 24.9167Z" fill="#4CAF50"/>
<path d="M25.7141 12.4599L25.7057 12.4167H24.875H15.5V16.5833H21.387C20.9745 17.7484 20.225 18.7531 19.2583 19.4849C19.2589 19.4844 19.2594 19.4844 19.2599 19.4839L22.4839 22.212C22.2557 22.4193 25.9167 19.7083 25.9167 14.5C25.9167 13.8016 25.8448 13.1198 25.7141 12.4599Z" fill="#1565C0"/>
</svg>
