<svg width="96" height="20" viewBox="0 0 96 20" fill="none" xmlns="http://www.w3.org/2000/svg">
<path d="M4.16 15L0.22 4.9H2.8L5.64 12.76H5.12L8 4.9H9.78L12.64 12.76H12.18L15 4.9H17.44L13.5 15H11.3L8.28 6.96H9.34L6.38 15H4.16ZM19.0163 15V0.279999H21.5163V6.92H21.2363C21.5429 6.2 22.0163 5.65333 22.6562 5.28C23.2963 4.89333 24.0296 4.7 24.8563 4.7C26.0563 4.7 26.9496 5.04 27.5363 5.72C28.1229 6.38667 28.4163 7.40667 28.4163 8.78V15H25.9163V8.9C25.9163 8.11333 25.7629 7.54667 25.4563 7.2C25.1629 6.84 24.6896 6.66 24.0363 6.66C23.2763 6.66 22.6629 6.9 22.1963 7.38C21.7429 7.84667 21.5163 8.47333 21.5163 9.26V15H19.0163ZM31.067 15V4.9H33.567V15H31.067ZM30.927 3V0.559999H33.707V3H30.927ZM39.8819 15.2C39.0152 15.2 38.2152 15.1 37.4819 14.9C36.7619 14.6867 36.1552 14.3933 35.6619 14.02L36.3619 12.34C36.8685 12.6867 37.4285 12.9533 38.0419 13.14C38.6552 13.3267 39.2752 13.42 39.9019 13.42C40.5685 13.42 41.0619 13.3067 41.3819 13.08C41.7152 12.8533 41.8819 12.5467 41.8819 12.16C41.8819 11.8533 41.7752 11.6133 41.5619 11.44C41.3619 11.2533 41.0352 11.1133 40.5819 11.02L38.5819 10.64C37.7285 10.4533 37.0752 10.1333 36.6219 9.68C36.1819 9.22667 35.9619 8.63333 35.9619 7.9C35.9619 7.27333 36.1285 6.72 36.4619 6.24C36.8085 5.76 37.2952 5.38667 37.9219 5.12C38.5619 4.84 39.3085 4.7 40.1619 4.7C40.9085 4.7 41.6085 4.8 42.2619 5C42.9285 5.2 43.4885 5.5 43.9419 5.9L43.2219 7.52C42.8085 7.18667 42.3352 6.92667 41.8019 6.74C41.2685 6.55333 40.7485 6.46 40.2419 6.46C39.5485 6.46 39.0419 6.58667 38.7219 6.84C38.4019 7.08 38.2419 7.39333 38.2419 7.78C38.2419 8.07333 38.3352 8.32 38.5219 8.52C38.7219 8.70667 39.0285 8.84667 39.4419 8.94L41.4419 9.32C42.3352 9.49333 43.0085 9.8 43.4619 10.24C43.9285 10.6667 44.1619 11.2533 44.1619 12C44.1619 12.6667 43.9819 13.24 43.6219 13.72C43.2619 14.2 42.7619 14.5667 42.1219 14.82C41.4819 15.0733 40.7352 15.2 39.8819 15.2ZM46.3014 19.32V7.42C46.3014 7.00667 46.2881 6.58667 46.2614 6.16C46.2347 5.73333 46.1947 5.31333 46.1414 4.9H48.5614L48.7814 7.02H48.5614C48.7614 6.31333 49.1814 5.75333 49.8214 5.34C50.4747 4.91333 51.2281 4.7 52.0814 4.7C52.9747 4.7 53.7547 4.91333 54.4214 5.34C55.0881 5.75333 55.6081 6.35333 55.9814 7.14C56.3547 7.91333 56.5414 8.84667 56.5414 9.94C56.5414 11.0333 56.3547 11.9733 55.9814 12.76C55.6081 13.5467 55.0881 14.1533 54.4214 14.58C53.7547 14.9933 52.9747 15.2 52.0814 15.2C51.2414 15.2 50.5014 14.9933 49.8614 14.58C49.2214 14.1667 48.7947 13.6133 48.5814 12.92H48.8014V19.32H46.3014ZM51.3814 13.28C52.1814 13.28 52.8214 13.0067 53.3014 12.46C53.7814 11.9 54.0214 11.06 54.0214 9.94C54.0214 8.82 53.7814 7.98667 53.3014 7.44C52.8214 6.89333 52.1814 6.62 51.3814 6.62C50.5947 6.62 49.9614 6.89333 49.4814 7.44C49.0014 7.98667 48.7614 8.82 48.7614 9.94C48.7614 11.06 49.0014 11.9 49.4814 12.46C49.9614 13.0067 50.5947 13.28 51.3814 13.28ZM63.5838 15.2C61.8904 15.2 60.5638 14.7333 59.6038 13.8C58.6438 12.8667 58.1638 11.5867 58.1638 9.96C58.1638 8.90667 58.3704 7.98667 58.7838 7.2C59.1971 6.41333 59.7704 5.8 60.5038 5.36C61.2504 4.92 62.1171 4.7 63.1038 4.7C64.0771 4.7 64.8904 4.90667 65.5438 5.32C66.1971 5.73333 66.6904 6.31333 67.0238 7.06C67.3704 7.80667 67.5438 8.68 67.5438 9.68V10.34H60.1838V9.02H65.7638L65.4238 9.3C65.4238 8.36667 65.2238 7.65333 64.8238 7.16C64.4371 6.66667 63.8704 6.42 63.1238 6.42C62.2971 6.42 61.6571 6.71333 61.2038 7.3C60.7638 7.88667 60.5438 8.70667 60.5438 9.76V10.02C60.5438 11.1133 60.8104 11.9333 61.3438 12.48C61.8904 13.0133 62.6571 13.28 63.6438 13.28C64.2171 13.28 64.7504 13.2067 65.2438 13.06C65.7504 12.9 66.2304 12.6467 66.6838 12.3L67.4238 13.98C66.9438 14.3667 66.3704 14.6667 65.7038 14.88C65.0371 15.0933 64.3304 15.2 63.5838 15.2ZM69.6408 15V7.48C69.6408 7.05333 69.6274 6.62 69.6008 6.18C69.5874 5.74 69.5541 5.31333 69.5008 4.9H71.9208L72.2008 7.66H71.8008C71.9341 6.99333 72.1541 6.44 72.4608 6C72.7808 5.56 73.1674 5.23333 73.6208 5.02C74.0741 4.80667 74.5674 4.7 75.1008 4.7C75.3408 4.7 75.5341 4.71333 75.6808 4.74C75.8274 4.75333 75.9741 4.78667 76.1208 4.84L76.1008 7.04C75.8474 6.93333 75.6274 6.86667 75.4408 6.84C75.2674 6.81333 75.0474 6.8 74.7808 6.8C74.2074 6.8 73.7208 6.92 73.3208 7.16C72.9341 7.4 72.6408 7.73333 72.4408 8.16C72.2541 8.58667 72.1608 9.07333 72.1608 9.62V15H69.6408ZM81.0147 15.2C80.148 15.2 79.348 15.1 78.6147 14.9C77.8947 14.6867 77.288 14.3933 76.7947 14.02L77.4947 12.34C78.0014 12.6867 78.5614 12.9533 79.1747 13.14C79.788 13.3267 80.408 13.42 81.0347 13.42C81.7014 13.42 82.1947 13.3067 82.5147 13.08C82.848 12.8533 83.0147 12.5467 83.0147 12.16C83.0147 11.8533 82.908 11.6133 82.6947 11.44C82.4947 11.2533 82.168 11.1133 81.7147 11.02L79.7147 10.64C78.8614 10.4533 78.208 10.1333 77.7547 9.68C77.3147 9.22667 77.0947 8.63333 77.0947 7.9C77.0947 7.27333 77.2614 6.72 77.5947 6.24C77.9414 5.76 78.428 5.38667 79.0547 5.12C79.6947 4.84 80.4414 4.7 81.2947 4.7C82.0414 4.7 82.7414 4.8 83.3947 5C84.0614 5.2 84.6214 5.5 85.0747 5.9L84.3547 7.52C83.9414 7.18667 83.468 6.92667 82.9347 6.74C82.4014 6.55333 81.8814 6.46 81.3747 6.46C80.6814 6.46 80.1747 6.58667 79.8547 6.84C79.5347 7.08 79.3747 7.39333 79.3747 7.78C79.3747 8.07333 79.468 8.32 79.6547 8.52C79.8547 8.70667 80.1614 8.84667 80.5747 8.94L82.5747 9.32C83.468 9.49333 84.1414 9.8 84.5947 10.24C85.0614 10.6667 85.2947 11.2533 85.2947 12C85.2947 12.6667 85.1147 13.24 84.7547 13.72C84.3947 14.2 83.8947 14.5667 83.2547 14.82C82.6147 15.0733 81.868 15.2 81.0147 15.2ZM86.2166 16.5V15H95.8366V16.5H86.2166Z" fill="url(#paint0_linear_17_3)"/>
<defs>
<linearGradient id="paint0_linear_17_3" x1="6.18058e-07" y1="7" x2="97" y2="7.00001" gradientUnits="userSpaceOnUse">
<stop stop-color="#4B4949"/>
<stop offset="1" stop-color="#8F8F8F"/>
</linearGradient>
</defs>
</svg>
