<svg width="41" height="41" viewBox="0 0 41 41" fill="none" xmlns="http://www.w3.org/2000/svg">
<path d="M39.9961 8.35176C38.5835 8.97768 37.0661 9.4006 35.4709 9.59175C37.1169 8.60685 38.3483 7.05673 38.9354 5.23064C37.3889 6.14919 35.6964 6.79576 33.9314 7.14222C32.7445 5.87493 31.1724 5.03496 29.4592 4.7527C27.746 4.47044 25.9875 4.76169 24.4568 5.58124C22.9261 6.40079 21.7088 7.70277 20.9938 9.28506C20.2789 10.8673 20.1064 12.6414 20.503 14.3318C17.3695 14.1745 14.3041 13.36 11.5057 11.9413C8.70737 10.5226 6.23859 8.53135 4.25961 6.09677C3.58294 7.26402 3.19386 8.61735 3.19386 10.0587C3.1931 11.3562 3.51262 12.6338 4.12407 13.7782C4.73552 14.9226 5.61998 15.8984 6.69899 16.6189C5.44763 16.5791 4.22387 16.241 3.12957 15.6327V15.7342C3.12945 17.554 3.75893 19.3178 4.91121 20.7263C6.06349 22.1348 7.66759 23.1013 9.45133 23.4617C8.29048 23.7759 7.07342 23.8222 5.89207 23.5971C6.39533 25.1629 7.37565 26.5321 8.69578 27.5131C10.0159 28.4941 11.6098 29.0378 13.2542 29.0679C10.4627 31.2593 7.01514 32.448 3.46622 32.4428C2.83756 32.443 2.20944 32.4062 1.58508 32.3328C5.18745 34.649 9.38086 35.8783 13.6636 35.8735C28.1612 35.8735 36.0866 23.866 36.0866 13.4521C36.0866 13.1138 36.0782 12.7721 36.0629 12.4338C37.6045 11.3189 38.9352 9.93837 39.9927 8.35684L39.9961 8.35176V8.35176Z" fill="#40ACEE"/>
</svg>
