<svg width="10" height="6" viewBox="0 0 10 6" fill="none" xmlns="http://www.w3.org/2000/svg">
<path d="M4.0783 0H5.4463C5.5743 0 5.6783 0.0439999 5.7583 0.132C5.8383 0.22 5.8783 0.336 5.8783 0.48V4.74C5.8783 4.868 5.9063 4.96 5.9623 5.016C6.0263 5.072 6.1623 5.1 6.3703 5.1H7.0183V6H5.3863C4.5143 6 4.0783 5.572 4.0783 4.716V0ZM0.826297 0H2.1943C2.3223 0 2.4263 0.0439999 2.5063 0.132C2.5863 0.22 2.6263 0.336 2.6263 0.48V4.74C2.6263 4.868 2.6543 4.96 2.7103 5.016C2.7743 5.072 2.9103 5.1 3.1183 5.1H3.7663V6H2.1343C1.2623 6 0.826297 5.572 0.826297 4.716V0ZM7.3783 0H8.7463C8.8743 0 8.9783 0.0439999 9.0583 0.132C9.1383 0.22 9.1783 0.336 9.1783 0.48V5.076C9.1783 5.348 9.0863 5.572 8.9023 5.748C8.7263 5.916 8.4623 6 8.1103 6H7.3783V0Z" fill="url(#paint0_linear_45_4)"/>
<defs>
<linearGradient id="paint0_linear_45_4" x1="-3.90742e-08" y1="1.36667" x2="8.99083" y2="1.943" gradientUnits="userSpaceOnUse">
<stop stop-color="#4B4949"/>
<stop offset="1" stop-color="#8F8F8F"/>
</linearGradient>
</defs>
</svg>
